<?xml version="1.0" encoding="UTF-8"?>
<svg viewBox="0 0 24 24" version="1.1" xmlns="http://www.w3.org/2000/svg" xmlns:xlink="http://www.w3.org/1999/xlink">
    <g id="Iteration-2" stroke="none" stroke-width="1" fill="none" fill-rule="evenodd">
        <g id="Message-Status" transform="translate(-315.000000, -856.000000)" fill="currentColor">
            <path d="M327,856 C333.627417,856 339,861.372583 339,868 C339,874.627417 333.627417,880 327,880 C320.372583,880 315,874.627417 315,868 C315,861.372583 320.372583,856 327,856 Z M331.03176,862.160472 L330.849467,862.279606 L330.723858,862.390524 L327,866.114 L323.276142,862.390524 L323.150533,862.279606 C322.627478,861.872906 321.87117,861.909879 321.390524,862.390524 C320.921895,862.859153 320.875032,863.589835 321.249936,864.110874 L321.390524,864.276142 L325.114,868 L321.390524,871.723858 L321.249936,871.889126 C320.875032,872.410165 320.921895,873.140847 321.390524,873.609476 C321.817765,874.036716 322.462812,874.1134 322.96824,873.839528 L323.150533,873.720394 L323.276142,873.609476 L327,869.886 L330.723858,873.609476 L330.849467,873.720394 C331.372522,874.127094 332.12883,874.090121 332.609476,873.609476 C333.078105,873.140847 333.124968,872.410165 332.750064,871.889126 L332.609476,871.723858 L328.886,868 L332.609476,864.276142 L332.750064,864.110874 C333.124968,863.589835 333.078105,862.859153 332.609476,862.390524 C332.182235,861.963284 331.537188,861.8866 331.03176,862.160472 Z" id="Shape"></path>
        </g>
    </g>
</svg>
